<?xml version="1.0" standalone="no"?>
<!DOCTYPE svg PUBLIC "-//W3C//DTD SVG 20010904//EN"
 "http://www.w3.org/TR/2001/REC-SVG-20010904/DTD/svg10.dtd">
<svg version="1.0" xmlns="http://www.w3.org/2000/svg"
 width="214.000000pt" height="214.000000pt" viewBox="0 0 214.000000 214.000000"
 preserveAspectRatio="xMidYMid meet">
<metadata>
Created by potrace 1.14, written by Peter Selinger 2001-2017
</metadata>
<g transform="translate(0.000000,214.000000) scale(0.100000,-0.100000)"
fill="#000000" stroke="none">
<path d="M1039 1908 c-1 -7 -2 -73 -3 -146 -1 -111 1 -132 14 -133 8 0 60 -1
115 -2 115 -2 155 -19 190 -77 19 -34 20 -53 23 -475 1 -271 -2 -446 -8 -455
-8 -13 -51 -15 -269 -18 -243 -2 -262 -1 -279 16 -17 17 -19 36 -18 216 2 162
4 199 17 212 13 13 54 15 277 14 l262 0 0 168 0 168 -277 -2 c-177 0 -293 -5
-319 -13 -151 -42 -254 -143 -285 -279 -10 -45 -14 -459 -5 -512 18 -107 85
-208 175 -264 81 -52 130 -58 435 -58 165 0 301 5 329 11 148 34 259 142 292
286 8 34 11 196 9 510 -2 505 -3 519 -65 634 -38 73 -91 130 -159 175 l-55 36
-197 0 c-151 0 -198 -3 -199 -12z"/>
</g>
</svg>
